# xmcd
#
# Track frame offsets: 
#        150
#        20220
#        34698
#        50892
#        70260
#        85407
#        104155
#        114964
#        136400
#        157548
#        174638
#        191596
#
# Disc length: 2761 seconds
#
# Revision: 0
# Processed by: cddbd v1.5.2PL0 Copyright (c) Steve Scherf et al.
# Submitted via: ExactAudioCopy v0.99pb5
#
DISCID=a60ac70c
DTITLE=Alessandro Magnanini - Someway Still I do
DYEAR=2009
DGENRE=Jazz
TTITLE0=open up your eyes
TTITLE1=livin' my life
TTITLE2=so long, goodbye
TTITLE3=secret lover
TTITLE4=greetings from here
TTITLE5=but not for you
TTITLE6=someway still i do
TTITLE7=stay into my life
TTITLE8=l'estate e'qua
TTITLE9=suddenly...
TTITLE10=something fine
TTITLE11=blind date blues
EXTD=
EXTT0=
EXTT1=
EXTT2=
EXTT3=
EXTT4=
EXTT5=
EXTT6=
EXTT7=
EXTT8=
EXTT9=
EXTT10=
EXTT11=
PLAYORDER=
